# xmcd CD database file
#
# Track frame offsets:
#	150
#	12704
#	26963
#	40700
#	54634
#	68385
#	81234
#	96164
#	109944
#	123618
#	134560
#	147347
#	159932
#	173406
#	185832
#	199817
#	212971
#	227490
#	240371
#	251718
#
# Disc length: 3526 seconds
#
# Revision: 1
# Processed by: cddbd v1.5.2PL0 Copyright (c) Steve Scherf et al.
# Submitted via: CDex 1.81
#
DISCID=1f0dc414
DTITLE=Don Byas - Riffin' and Jivin'
DYEAR=2001
DGENRE=Jazz
TTITLE0=Slam-In' Around
TTITLE1=Harvard Blues
TTITLE2=Three O'Clock In The Morning
TTITLE3=Stardust
TTITLE4=Dark Eyes
TTITLE5=Laura
TTITLE6=Nancy
TTITLE7=Embraceable You
TTITLE8=Annie Laurie
TTITLE9=I'm Beginning To See The Light
TTITLE10=Rosetta
TTITLE11=Ain't Misbehavin'
TTITLE12=Body And Soul
TTITLE13=Blue And Sentimental
TTITLE14=These Foolish Things
TTITLE15=Humoresque
TTITLE16=Stormy Weather
TTITLE17=Riffin' And Jivin'
TTITLE18=I Can't Explain
TTITLE19=Blues For Panassie
EXTD=YEAR: 2001
EXTT0=
EXTT1=
EXTT2=
EXTT3=
EXTT4=
EXTT5=
EXTT6=
EXTT7=
EXTT8=
EXTT9=
EXTT10=
EXTT11=
EXTT12=
EXTT13=
EXTT14=
EXTT15=
EXTT16=
EXTT17=
EXTT18=
EXTT19=
PLAYORDER=
